<svg width="20" height="20" viewBox="0 0 20 20" fill="none" xmlns="http://www.w3.org/2000/svg">
<path d="M9.99984 1.66669C5.40484 1.66669 1.6665 5.40502 1.6665 10C1.6665 14.595 5.40484 18.3334 9.99984 18.3334C14.5948 18.3334 18.3332 14.595 18.3332 10C18.3332 5.40502 14.5948 1.66669 9.99984 1.66669ZM9.99984 16.6667C6.324 16.6667 3.33317 13.6759 3.33317 10C3.33317 6.32419 6.324 3.33335 9.99984 3.33335C13.6757 3.33335 16.6665 6.32419 16.6665 10C16.6665 13.6759 13.6757 16.6667 9.99984 16.6667Z" fill="#6366F1"/>
<path d="M8.33273 11.3225L6.4169 9.40999L5.24023 10.59L8.3344 13.6775L13.9227 8.08916L12.7444 6.91083L8.33273 11.3225Z" fill="#6366F1"/>
</svg>
